<?xml version="1.0" encoding="utf-8"?>
<!-- Generator: Adobe Illustrator 16.0.0, SVG Export Plug-In . SVG Version: 6.00 Build 0)  -->
<!DOCTYPE svg PUBLIC "-//W3C//DTD SVG 1.1//EN" "http://www.w3.org/Graphics/SVG/1.1/DTD/svg11.dtd">
<svg version="1.1" id="Layer_1" xmlns="http://www.w3.org/2000/svg" xmlns:xlink="http://www.w3.org/1999/xlink" x="0px" y="0px"
	 width="207.25px" height="874px" viewBox="0 0 207.25 874" enable-background="new 0 0 207.25 874" xml:space="preserve">
<g>
	<polygon fill="#D2CDB5" points="1,374 1,326 150.208,326 204.745,350 150.208,374 	"/>
	<g>
		<path fill="#00738E" d="M150,327l52.241,23l-52.242,23H2v-46H150 M150,325H0v50h150.416l56.626-25L150,325.125V325z"/>
	</g>
</g>
<g>
	<polygon fill="#D2CDB5" points="1,424 1,376 150.208,376 204.745,400 150.208,424 	"/>
	<g>
		<path fill="#00738E" d="M150,377l52.241,23l-52.242,23H2v-46H150 M150,375H0v50h150.416l56.626-25L150,375.125V375z"/>
	</g>
</g>
<g>
	<g>
		<polygon fill="#D2CDB5" points="1,49 1,1 150.208,1 204.745,25 150.208,49 		"/>
		<g>
			<path fill="#00738E" d="M150,2l52.241,23l-52.242,23H2V2H150 M150,0H0v50h150.416l56.626-25L150,0.125V0z"/>
		</g>
	</g>
	<g>
		<polygon fill="#D2CDB5" points="1,99 1,51 150.208,51 204.745,75 150.208,99 		"/>
		<g>
			<path fill="#00738E" d="M150,52l52.241,23l-52.242,23H2V52H150 M150,50H0v50h150.416l56.626-25L150,50.125V50z"/>
		</g>
	</g>
	<g>
		<polygon fill="#D2CDB5" points="1,149 1,101 150.208,101 204.745,125 150.208,149 		"/>
		<path fill="#00738E" d="M150,102l52.241,23l-52.242,23H2v-46H150 M150,100H0v50h150.416l56.626-25L150,100.125V100z"/>
	</g>
	<g>
		<polygon fill="#D2CDB5" points="1,224 1,176 150.208,176 204.745,200 150.208,224 		"/>
		<g>
			<path fill="#00738E" d="M150,177l52.241,23l-52.242,23H2v-46H150 M150,175H0v50h150.416l56.626-25L150,175.125V175z"/>
		</g>
	</g>
	<g>
		<polygon fill="#E3E0D2" points="1,174 1,151 150.31,151 202.504,162.5 150.31,174 		"/>
		<path fill="#00738E" d="M150.102,152l47.605,10.5L150.203,173H2v-21h148 M150,150H0v25h150.416l56.626-12.5L150,150.125V150z"/>
	</g>
	<g>
		<polygon fill="#D2CDB5" points="1,274 1,226 150.208,226 204.745,250 150.208,274 		"/>
		<g>
			<path fill="#00738E" d="M150,227l52.241,23l-52.242,23H2v-46H150 M150,225H0v50h150.416l56.626-25L150,225.125V225z"/>
		</g>
	</g>
</g>
<g>
	<polygon fill="#FFD360" points="1,498 1,450 150.208,450 204.745,474 150.208,498 	"/>
	<g>
		<path fill="#00738E" d="M150,451l52.241,23l-52.242,23H2v-46H150 M150,449H0v50h150.416l56.626-25L150,449.125V449z"/>
	</g>
</g>
<g>
	
		<text transform="matrix(1 0 0 1 12.5 483.4072)" fill="#FFFFFF" stroke="#00738E" stroke-width="1.5" stroke-miterlimit="10" font-family="'Calibri'" font-size="33.0743">Why ?</text>
</g>
<g>
	<text transform="matrix(1 0 0 1 12.5 483.4072)" fill="#FFFFFF" font-family="'Calibri'" font-size="33.0743">Why ?</text>
</g>
<g>
	<polygon fill="#FFD360" points="1,548 1,500 150.208,500 204.745,524 150.208,548 	"/>
	<g>
		<path fill="#00738E" d="M150,501l52.241,23l-52.242,23H2v-46H150 M150,499H0v50h150.416l56.626-25L150,499.125V499z"/>
	</g>
</g>
<g>
	<polygon fill="#FFD360" points="1,598 1,550 150.208,550 204.745,574 150.208,598 	"/>
	<path fill="#00738E" d="M150,551l52.241,23l-52.242,23H2v-46H150 M150,549H0v50h150.416l56.626-25L150,549.125V549z"/>
</g>
<g>
	<polygon fill="#FFD360" points="1,673 1,625 150.208,625 204.745,649 150.208,673 	"/>
	<g>
		<path fill="#00738E" d="M150,626l52.241,23l-52.242,23H2v-46H150 M150,624H0v50h150.416l56.626-25L150,624.125V624z"/>
	</g>
</g>
<g>
	<polygon fill="#FFD360" points="1,623 1,600 150.31,600 202.504,611.5 150.31,623 	"/>
	<path fill="#00738E" d="M150.102,601l47.605,10.5L150.203,622H2v-21h148 M150,599H0v25h150.416l56.626-12.5L150,599.125V599z"/>
</g>
<g>
	<polygon fill="#FFD360" points="1,823 1,775 150.208,775 204.745,799 150.208,823 	"/>
	<g>
		<path fill="#00738E" d="M150,776l52.241,23l-52.242,23H2v-46H150 M150,774H0v50h150.416l56.626-25L150,774.125V774z"/>
	</g>
</g>
<g>
	<polygon fill="#FFD360" points="1,873 1,825 150.208,825 204.745,849 150.208,873 	"/>
	<g>
		<path fill="#00738E" d="M150,826l52.241,23l-52.242,23H2v-46H150 M150,824H0v50h150.416l56.626-25L150,824.125V824z"/>
	</g>
</g>
<g>
	<polygon fill="#FFD360" points="1,723 1,675 150.208,675 204.745,699 150.208,723 	"/>
	<g>
		<path fill="#00738E" d="M150,676l52.241,23l-52.242,23H2v-46H150 M150,674H0v50h150.416l56.626-25L150,674.125V674z"/>
	</g>
</g>
<g>
	
		<text transform="matrix(1 0 0 1 12.5 34.4072)" fill="#FFFFFF" stroke="#00738E" stroke-width="1.5" stroke-miterlimit="10" font-family="'Calibri'" font-size="33.0743">Why ?</text>
</g>
<g>
	<text transform="matrix(1 0 0 1 12.5 34.4072)" fill="#FFFFFF" font-family="'Calibri'" font-size="33.0743">Why ?</text>
</g>
<g>
	
		<text transform="matrix(1 0 0 1 12.5 84.4072)" fill="#FFFFFF" stroke="#00738E" stroke-width="1.5" stroke-miterlimit="10" font-family="'Calibri'" font-size="33.0743">What ?</text>
</g>
<g>
	<text transform="matrix(1 0 0 1 12.5 84.4072)" fill="#FFFFFF" font-family="'Calibri'" font-size="33.0743">What ?</text>
</g>
<g>
	
		<text transform="matrix(1 0 0 1 12.5 134.4072)" fill="#FFFFFF" stroke="#00738E" stroke-width="1.5" stroke-miterlimit="10" font-family="'Calibri'" font-size="33.0743">How ?</text>
</g>
<g>
	<text transform="matrix(1 0 0 1 12.5 134.4072)" fill="#FFFFFF" font-family="'Calibri'" font-size="33.0743">How ?</text>
</g>
<g>
	
		<text transform="matrix(1 0 0 1 12.5 209.4072)" fill="#FFFFFF" stroke="#00738E" stroke-width="1.5" stroke-miterlimit="10" font-family="'Calibri'" font-size="33.0743">Where ?</text>
</g>
<g>
	<text transform="matrix(1 0 0 1 12.5 209.4072)" fill="#FFFFFF" font-family="'Calibri'" font-size="33.0743">Where ?</text>
</g>
<g>
	
		<text transform="matrix(1 0 0 1 12.5 409.4072)" fill="#FFFFFF" stroke="#00738E" stroke-width="1.5" stroke-miterlimit="10" font-family="'Calibri'" font-size="33.0743">Where ?</text>
</g>
<g>
	<text transform="matrix(1 0 0 1 12.5 409.4072)" fill="#FFFFFF" font-family="'Calibri'" font-size="33.0743">Where ?</text>
</g>
<g>
	
		<text transform="matrix(1 0 0 1 12.5 259.4072)" fill="#FFFFFF" stroke="#00738E" stroke-width="1.5" stroke-miterlimit="10" font-family="'Calibri'" font-size="33.0743">Do!</text>
</g>
<g>
	<text transform="matrix(1 0 0 1 12.5 259.4072)" fill="#FFFFFF" font-family="'Calibri'" font-size="33.0743">Do!</text>
</g>
<g>
	
		<text transform="matrix(1 0 0 1 12.5 533.4072)" fill="#FFFFFF" stroke="#00738E" stroke-width="1.5" stroke-miterlimit="10" font-family="'Calibri'" font-size="33.0743">What ?</text>
</g>
<g>
	<text transform="matrix(1 0 0 1 12.5 533.4072)" fill="#FFFFFF" font-family="'Calibri'" font-size="33.0743">What ?</text>
</g>
<g>
	
		<text transform="matrix(1 0 0 1 12.5 583.4072)" fill="#FFFFFF" stroke="#00738E" stroke-width="1.5" stroke-miterlimit="10" font-family="'Calibri'" font-size="33.0743">How ?</text>
</g>
<g>
	<text transform="matrix(1 0 0 1 12.5 583.4072)" fill="#FFFFFF" font-family="'Calibri'" font-size="33.0743">How ?</text>
</g>
<g>
	
		<text transform="matrix(1 0 0 1 12.5 658.4072)" fill="#FFFFFF" stroke="#00738E" stroke-width="1.5" stroke-miterlimit="10" font-family="'Calibri'" font-size="33.0743">Where ?</text>
</g>
<g>
	<text transform="matrix(1 0 0 1 12.5 658.4072)" fill="#FFFFFF" font-family="'Calibri'" font-size="33.0743">Where ?</text>
</g>
<g>
	
		<text transform="matrix(1 0 0 1 12.5 858.4072)" fill="#FFFFFF" stroke="#00738E" stroke-width="1.5" stroke-miterlimit="10" font-family="'Calibri'" font-size="33.0743">Where ?</text>
</g>
<g>
	<text transform="matrix(1 0 0 1 12.5 858.4072)" fill="#FFFFFF" font-family="'Calibri'" font-size="33.0743">Where ?</text>
</g>
<g>
	
		<text transform="matrix(1 0 0 1 12.5 708.4072)" fill="#FFFFFF" stroke="#00738E" stroke-width="1.5" stroke-miterlimit="10" font-family="'Calibri'" font-size="33.0743">Do!</text>
</g>
<g>
	<text transform="matrix(1 0 0 1 12.5 708.4072)" fill="#FFFFFF" font-family="'Calibri'" font-size="33.0743">Do!</text>
</g>
</svg>
