<?xml version="1.0" encoding="utf-8"?>
<!-- Generator: Adobe Illustrator 16.0.0, SVG Export Plug-In . SVG Version: 6.00 Build 0)  -->
<!DOCTYPE svg PUBLIC "-//W3C//DTD SVG 1.1//EN" "http://www.w3.org/Graphics/SVG/1.1/DTD/svg11.dtd">
<svg version="1.1" id="Layer_1" xmlns="http://www.w3.org/2000/svg" xmlns:xlink="http://www.w3.org/1999/xlink" x="0px" y="0px"
	 width="207.25px" height="1000.785px" viewBox="0 0 207.25 1000.785" enable-background="new 0 0 207.25 1000.785"
	 xml:space="preserve">
<g>
	<polygon fill="#D2CDB5" points="1,424 1,376 150.208,376 204.745,400 150.208,424 	"/>
	<g>
		<path fill="#00738E" d="M150,377l52.241,23l-52.242,23H2v-46H150 M150,375H0v50h150.416l56.626-25L150,375.125V375z"/>
	</g>
</g>
<g>
	<polygon fill="#D2CDB5" points="1,524 1,476 150.208,476 204.745,500 150.208,524 	"/>
	<g>
		<path fill="#00738E" d="M150,477l52.241,23l-52.242,23H2v-46H150 M150,475H0v50h150.416l56.626-25L150,475.125V475z"/>
	</g>
</g>
<g>
	<polygon fill="#D2CDB5" points="1,49 1,1 150.208,1 204.745,25 150.208,49 	"/>
	<g>
		<path fill="#00738E" d="M150,2l52.241,23l-52.242,23H2V2H150 M150,0H0v50h150.416l56.626-25L150,0.125V0z"/>
	</g>
</g>
<g>
	<polygon fill="#D2CDB5" points="1,99 1,51 150.208,51 204.745,75 150.208,99 	"/>
	<g>
		<path fill="#00738E" d="M150,52l52.241,23l-52.242,23H2V52H150 M150,50H0v50h150.416l56.626-25L150,50.125V50z"/>
	</g>
</g>
<g>
	<polygon fill="#D2CDB5" points="1,149 1,101 150.208,101 204.745,125 150.208,149 	"/>
	<path fill="#00738E" d="M150,102l52.241,23l-52.242,23H2v-46H150 M150,100H0v50h150.416l56.626-25L150,100.125V100z"/>
</g>
<g>
	<polygon fill="#D2CDB5" points="1,274 1,226 150.208,226 204.745,250 150.208,274 	"/>
	<g>
		<path fill="#00738E" d="M150,227l52.241,23l-52.242,23H2v-46H150 M150,225H0v50h150.416l56.626-25L150,225.125V225z"/>
	</g>
</g>
<g>
	<polygon fill="#E3E0D2" points="1,174 1,151 150.31,151 202.504,162.5 150.31,174 	"/>
	<path fill="#00738E" d="M150.102,152l47.605,10.5L150.203,173H2v-21h148 M150,150H0v25h150.416l56.626-12.5L150,150.125V150z"/>
</g>
<g>
	<polygon fill="#E3E0D2" points="1,199 1,176 150.31,176 202.504,187.5 150.31,199 	"/>
	<path fill="#00738E" d="M150.102,177l47.605,10.5L150.203,198H2v-21h148 M150,175H0v25h150.416l56.626-12.5L150,175.125V175z"/>
</g>
<g>
	<polygon fill="#E3E0D2" points="1,224 1,201 150.31,201 202.504,212.5 150.31,224 	"/>
	<path fill="#00738E" d="M150.102,202l47.605,10.5L150.203,223H2v-21h148 M150,200H0v25h150.416l56.626-12.5L150,200.125V200z"/>
</g>
<g>
	<polygon fill="#D2CDB5" points="1,324 1,276 150.208,276 204.745,300 150.208,324 	"/>
	<g>
		<path fill="#00738E" d="M150,277l52.241,23l-52.242,23H2v-46H150 M150,275H0v50h150.416l56.626-25L150,275.125V275z"/>
	</g>
</g>
<g>
	
		<text transform="matrix(1 0 0 1 12.5 37.5)" fill="#FFFFFF" stroke="#00738E" stroke-width="2" stroke-miterlimit="10" font-family="'Calibri'" font-size="40">Why ?</text>
</g>
<g>
	<text transform="matrix(1 0 0 1 12.5 37.5)" fill="#FFFFFF" font-family="'Calibri'" font-size="40">Why ?</text>
</g>
<g>
	
		<text transform="matrix(1 0 0 1 12.5 87.5)" fill="#FFFFFF" stroke="#00738E" stroke-width="2" stroke-miterlimit="10" font-family="'Calibri'" font-size="40">What ?</text>
</g>
<g>
	<text transform="matrix(1 0 0 1 12.5 87.5)" fill="#FFFFFF" font-family="'Calibri'" font-size="40">What ?</text>
</g>
<g>
	
		<text transform="matrix(1 0 0 1 12.5 137.5)" fill="#FFFFFF" stroke="#00738E" stroke-width="2" stroke-miterlimit="10" font-family="'Calibri'" font-size="40">How ?</text>
</g>
<g>
	<text transform="matrix(1 0 0 1 12.5 137.5)" fill="#FFFFFF" font-family="'Calibri'" font-size="40">How ?</text>
</g>
<g>
	
		<text transform="matrix(1 0 0 1 12.5 262.5)" fill="#FFFFFF" stroke="#00738E" stroke-width="2" stroke-miterlimit="10" font-family="'Calibri'" font-size="40">Where ?</text>
</g>
<g>
	<text transform="matrix(1 0 0 1 12.5 262.5)" fill="#FFFFFF" font-family="'Calibri'" font-size="40">Where ?</text>
</g>
<g>
	<polygon fill="#D2CDB5" points="1,474 1,426 150.208,426 204.745,450 150.208,474 	"/>
	<g>
		<path fill="#00738E" d="M150,427l52.241,23l-52.242,23H2v-46H150 M150,425H0v50h150.416l56.626-25L150,425.125V425z"/>
	</g>
</g>
<g>
	
		<text transform="matrix(1 0 0 1 12.5 462.5)" fill="#FFFFFF" stroke="#00738E" stroke-width="2" stroke-miterlimit="10" font-family="'Calibri'" font-size="40">Where ?</text>
</g>
<g>
	<text transform="matrix(1 0 0 1 12.5 462.5)" fill="#FFFFFF" font-family="'Calibri'" font-size="40">Where ?</text>
</g>
<g>
	
		<text transform="matrix(1 0 0 1 12.5 512.5)" fill="#FFFFFF" stroke="#00738E" stroke-width="2" stroke-miterlimit="10" font-family="'Calibri'" font-size="40">Do !</text>
</g>
<g>
	<text transform="matrix(1 0 0 1 12.5 512.5)" fill="#FFFFFF" font-family="'Calibri'" font-size="40">Do !</text>
</g>
<g>
	
		<text transform="matrix(1 0 0 1 12.5 312.5)" fill="#FFFFFF" stroke="#00738E" stroke-width="2" stroke-miterlimit="10" font-family="'Calibri'" font-size="40">Do!</text>
</g>
<g>
	<text transform="matrix(1 0 0 1 12.5 312.5)" fill="#FFFFFF" font-family="'Calibri'" font-size="40">Do!</text>
</g>
<g>
	<polygon fill="#FFD360" points="1,999 1,951 150.208,951 204.745,975 150.208,999 	"/>
	<g>
		<path fill="#00738E" d="M150,952l52.241,23l-52.242,23H2v-46H150 M150,950H0v50h150.416l56.626-25L150,950.125V950z"/>
	</g>
</g>
<g>
	<polygon fill="#FFD360" points="1,1099 1,1051 150.208,1051 204.745,1075 150.208,1099 	"/>
	<g>
		<path fill="#00738E" d="M150,1052l52.241,23l-52.242,23H2v-46H150 M150,1050H0v50h150.416l56.626-25L150,1050.125V1050z"/>
	</g>
</g>
<g>
	<polygon fill="#FFD360" points="1,624 1,576 150.208,576 204.745,600 150.208,624 	"/>
	<g>
		<path fill="#00738E" d="M150,577l52.241,23l-52.242,23H2v-46H150 M150,575H0v50h150.416l56.626-25L150,575.125V575z"/>
	</g>
</g>
<g>
	<polygon fill="#FFD360" points="1,674 1,626 150.208,626 204.745,650 150.208,674 	"/>
	<g>
		<path fill="#00738E" d="M150,627l52.241,23l-52.242,23H2v-46H150 M150,625H0v50h150.416l56.626-25L150,625.125V625z"/>
	</g>
</g>
<g>
	<polygon fill="#FFD360" points="1,724 1,676 150.208,676 204.745,700 150.208,724 	"/>
	<path fill="#00738E" d="M150,677l52.241,23l-52.242,23H2v-46H150 M150,675H0v50h150.416l56.626-25L150,675.125V675z"/>
</g>
<g>
	<polygon fill="#FFD360" points="1,849 1,801 150.208,801 204.745,825 150.208,849 	"/>
	<g>
		<path fill="#00738E" d="M150,802l52.241,23l-52.242,23H2v-46H150 M150,800H0v50h150.416l56.626-25L150,800.125V800z"/>
	</g>
</g>
<g>
	<polygon fill="#FFD360" points="1,749 1,726 150.31,726 202.504,737.5 150.31,749 	"/>
	<path fill="#00738E" d="M150.102,727l47.605,10.5L150.203,748H2v-21h148 M150,725H0v25h150.416l56.626-12.5L150,725.125V725z"/>
</g>
<g>
	<polygon fill="#FFD360" points="1,774 1,751 150.31,751 202.504,762.5 150.31,774 	"/>
	<path fill="#00738E" d="M150.102,752l47.605,10.5L150.203,773H2v-21h148 M150,750H0v25h150.416l56.626-12.5L150,750.125V750z"/>
</g>
<g>
	<polygon fill="#FFD360" points="1,799 1,776 150.31,776 202.504,787.5 150.31,799 	"/>
	<path fill="#00738E" d="M150.102,777l47.605,10.5L150.203,798H2v-21h148 M150,775H0v25h150.416l56.626-12.5L150,775.125V775z"/>
</g>
<g>
	<polygon fill="#FFD360" points="1,899 1,851 150.208,851 204.745,875 150.208,899 	"/>
	<g>
		<path fill="#00738E" d="M150,852l52.241,23l-52.242,23H2v-46H150 M150,850H0v50h150.416l56.626-25L150,850.125V850z"/>
	</g>
</g>
<g>
	
		<text transform="matrix(1 0 0 1 12.5 612.5)" fill="#FFFFFF" stroke="#00738E" stroke-width="2" stroke-miterlimit="10" font-family="'Calibri'" font-size="40">Why ?</text>
</g>
<g>
	<text transform="matrix(1 0 0 1 12.5 612.5)" fill="#FFFFFF" font-family="'Calibri'" font-size="40">Why ?</text>
</g>
<g>
	
		<text transform="matrix(1 0 0 1 12.5 662.5)" fill="#FFFFFF" stroke="#00738E" stroke-width="2" stroke-miterlimit="10" font-family="'Calibri'" font-size="40">What ?</text>
</g>
<g>
	<text transform="matrix(1 0 0 1 12.5 662.5)" fill="#FFFFFF" font-family="'Calibri'" font-size="40">What ?</text>
</g>
<g>
	
		<text transform="matrix(1 0 0 1 12.5 712.5)" fill="#FFFFFF" stroke="#00738E" stroke-width="2" stroke-miterlimit="10" font-family="'Calibri'" font-size="40">How ?</text>
</g>
<g>
	<text transform="matrix(1 0 0 1 12.5 712.5)" fill="#FFFFFF" font-family="'Calibri'" font-size="40">How ?</text>
</g>
<g>
	
		<text transform="matrix(1 0 0 1 12.5 837.5)" fill="#FFFFFF" stroke="#00738E" stroke-width="2" stroke-miterlimit="10" font-family="'Calibri'" font-size="40">Where ?</text>
</g>
<g>
	<text transform="matrix(1 0 0 1 12.5 837.5)" fill="#FFFFFF" font-family="'Calibri'" font-size="40">Where ?</text>
</g>
<g>
	<polygon fill="#FFD360" points="1,1049 1,1001 150.208,1001 204.745,1025 150.208,1049 	"/>
	<g>
		<path fill="#00738E" d="M150,1002l52.241,23l-52.242,23H2v-46H150 M150,1000H0v50h150.416l56.626-25L150,1000.125V1000z"/>
	</g>
</g>
<g>
	
		<text transform="matrix(1 0 0 1 12.5 1037.5)" fill="#FFFFFF" stroke="#00738E" stroke-width="2" stroke-miterlimit="10" font-family="'Calibri'" font-size="40">Where ?</text>
</g>
<g>
	<text transform="matrix(1 0 0 1 12.5 1037.5)" fill="#FFFFFF" font-family="'Calibri'" font-size="40">Where ?</text>
</g>
<g>
	
		<text transform="matrix(1 0 0 1 12.5 1087.5)" fill="#FFFFFF" stroke="#00738E" stroke-width="2" stroke-miterlimit="10" font-family="'Calibri'" font-size="40">Do !</text>
</g>
<g>
	<text transform="matrix(1 0 0 1 12.5 1087.5)" fill="#FFFFFF" font-family="'Calibri'" font-size="40">Do !</text>
</g>
<g>
	
		<text transform="matrix(1 0 0 1 12.5 887.5)" fill="#FFFFFF" stroke="#00738E" stroke-width="2" stroke-miterlimit="10" font-family="'Calibri'" font-size="40">Do!</text>
</g>
<g>
	<text transform="matrix(1 0 0 1 12.5 887.5)" fill="#FFFFFF" font-family="'Calibri'" font-size="40">Do!</text>
</g>
</svg>
